<?xml version="1.0" standalone="no"?>
<!DOCTYPE svg PUBLIC "-//W3C//DTD SVG 20010904//EN"
 "http://www.w3.org/TR/2001/REC-SVG-20010904/DTD/svg10.dtd">
<svg version="1.0" xmlns="http://www.w3.org/2000/svg"
 width="1024.000000pt" height="1024.000000pt" viewBox="0 0 1024.000000 1024.000000"
 preserveAspectRatio="xMidYMid meet">

<g transform="translate(0.000000,1024.000000) scale(0.100000,-0.100000)"
fill="#000000" stroke="none">
<path d="M6615 9586 c-110 -35 -171 -86 -770 -636 -171 -157 -387 -355 -480
-440 -94 -85 -259 -237 -368 -338 l-198 -184 -177 -18 c-776 -80 -1336 -258
-1721 -546 -40 -30 -77 -54 -81 -52 -5 2 -64 51 -132 110 -209 182 -460 376
-530 412 -122 62 -239 68 -354 17 -72 -32 -525 -366 -577 -426 -10 -11 -30
-42 -45 -70 -23 -43 -27 -62 -27 -135 0 -131 21 -166 208 -342 278 -263 780
-741 942 -898 88 -85 193 -186 233 -223 39 -38 72 -70 72 -72 0 -4 -1061
-1005 -1283 -1209 -87 -80 -114 -112 -140 -165 -28 -58 -32 -75 -31 -146 1
-138 47 -207 217 -318 389 -256 415 -269 527 -275 69 -3 95 0 140 17 66 25
212 133 417 310 84 72 155 131 157 131 3 0 7 -352 8 -782 4 -777 4 -784 26
-856 81 -267 274 -460 637 -637 362 -177 708 -267 1300 -337 180 -21 899 -18
1097 5 l158 19 207 -201 c238 -229 301 -281 381 -312 77 -29 207 -37 288 -16
68 18 304 128 919 431 742 366 1085 540 1133 576 56 42 105 112 129 183 17 49
18 222 21 3122 1 1789 -1 3105 -7 3153 -11 107 -52 194 -121 255 -53 48 -60
51 -780 372 -206 92 -548 245 -760 340 -212 95 -403 178 -425 184 -53 14 -160
13 -210 -3z m-215 -160 c0 -2 -8 -10 -17 -17 -16 -13 -17 -12 -4 4 13 16 21
21 21 13z m-400 -360 c0 -2 -8 -10 -17 -17 -16 -13 -17 -12 -4 4 13 16 21 21
21 13z m-600 -550 c0 -2 -8 -10 -17 -17 -16 -13 -17 -12 -4 4 13 16 21 21 21
13z m3497 -358 c-3 -8 -6 -5 -6 6 -1 11 2 17 5 13 3 -3 4 -12 1 -19z m0 -70
c-2 -13 -4 -5 -4 17 -1 22 1 32 4 23 2 -10 2 -28 0 -40z m0 -90 c-3 -8 -6 -5
-6 6 -1 11 2 17 5 13 3 -3 4 -12 1 -19z m-1819 -16 c9 -12 12 -70 12 -214 0
-109 -2 -198 -4 -198 -1 0 -48 21 -102 46 -54 26 -142 63 -194 83 -52 20 -97
40 -98 44 -2 5 74 66 167 137 174 132 189 139 219 102z m1819 -104 c-3 -8 -6
-5 -6 6 -1 11 2 17 5 13 3 -3 4 -12 1 -19z m0 -105 c-2 -16 -4 -5 -4 22 0 28
2 40 4 28 2 -13 2 -35 0 -50z m-3347 -137 c337 -33 567 -70 802 -130 480 -123
800 -311 905 -531 36 -76 38 -85 38 -180 0 -94 -2 -105 -33 -168 -135 -275
-619 -516 -1250 -623 -703 -119 -1516 -88 -2141 82 -449 122 -798 332 -901
542 -28 58 -34 80 -38 162 -5 105 14 183 64 261 171 272 684 486 1362 569 331
41 854 48 1192 16z m3347 -38 c-3 -8 -6 -5 -6 6 -1 11 2 17 5 13 3 -3 4 -12 1
-19z m0 -55 c-3 -10 -5 -4 -5 12 0 17 2 24 5 18 2 -7 2 -21 0 -30z m0 -85 c-3
-7 -5 -2 -5 12 0 14 2 19 5 13 2 -7 2 -19 0 -25z m0 -90 c-3 -7 -5 -2 -5 12 0
14 2 19 5 13 2 -7 2 -19 0 -25z m0 -210 c-3 -8 -6 -5 -6 6 -1 11 2 17 5 13 3
-3 4 -12 1 -19z m-7581 -150 l29 -33 -32 29 c-18 17 -33 31 -33 33 0 8 8 1 36
-29z m7581 -440 c-3 -8 -6 -5 -6 6 -1 11 2 17 5 13 3 -3 4 -12 1 -19z m0 -80
c-3 -8 -6 -5 -6 6 -1 11 2 17 5 13 3 -3 4 -12 1 -19z m-5807 -380 c219 -146
497 -263 822 -342 770 -189 1657 -191 2406 -5 371 92 681 226 902 390 l81 60
-3 -463 -3 -463 -34 -65 c-108 -208 -459 -412 -913 -530 -1087 -283 -2485
-153 -3134 292 -142 97 -252 229 -273 329 -7 31 -11 211 -11 480 l0 431 28
-22 c15 -11 74 -53 132 -92z m5807 -20 c-3 -8 -6 -5 -6 6 -1 11 2 17 5 13 3
-3 4 -12 1 -19z m-3060 -134 c-3 -3 -12 -4 -19 -1 -8 3 -5 6 6 6 11 1 17 -2
13 -5z m3060 -336 c-3 -7 -5 -2 -5 12 0 14 2 19 5 13 2 -7 2 -19 0 -25z m0
-85 c-3 -10 -5 -2 -5 17 0 19 2 27 5 18 2 -10 2 -26 0 -35z m0 -175 c-3 -8 -6
-5 -6 6 -1 11 2 17 5 13 3 -3 4 -12 1 -19z m0 -220 c-2 -13 -4 -3 -4 22 0 25
2 35 4 23 2 -13 2 -33 0 -45z m0 -85 c-3 -10 -5 -4 -5 12 0 17 2 24 5 18 2 -7
2 -21 0 -30z m0 -105 c-3 -8 -6 -5 -6 6 -1 11 2 17 5 13 3 -3 4 -12 1 -19z m0
-65 c-3 -10 -5 -2 -5 17 0 19 2 27 5 18 2 -10 2 -26 0 -35z m0 -110 c-2 -16
-4 -5 -4 22 0 28 2 40 4 28 2 -13 2 -35 0 -50z m-5807 -64 c499 -310 1301
-483 2165 -466 409 8 680 39 1018 117 348 81 648 197 886 345 47 29 96 63 108
74 12 12 25 21 28 21 3 0 4 -201 3 -448 l-3 -447 -34 -70 c-132 -268 -640
-515 -1286 -625 -263 -45 -436 -61 -735 -67 -599 -12 -1091 54 -1536 208 -385
133 -642 307 -737 498 l-32 66 -3 453 -3 454 38 -30 c22 -17 77 -54 123 -83z
m5807 -31 c-3 -8 -6 -5 -6 6 -1 11 2 17 5 13 3 -3 4 -12 1 -19z m0 -100 c-3
-8 -6 -5 -6 6 -1 11 2 17 5 13 3 -3 4 -12 1 -19z m0 -170 c-3 -7 -5 -2 -5 12
0 14 2 19 5 13 2 -7 2 -19 0 -25z m-3180 -124 c-3 -3 -12 -4 -19 -1 -8 3 -5 6
6 6 11 1 17 -2 13 -5z m-2670 -925 c364 -264 936 -439 1641 -505 175 -16 600
-21 757 -10 567 43 999 138 1380 301 169 73 264 128 456 264 20 14 20 10 17
-425 l-3 -439 -28 -59 c-97 -207 -364 -392 -752 -521 -469 -155 -1161 -233
-1725 -195 -425 29 -733 84 -1040 187 -461 153 -728 347 -800 582 -19 58 -20
94 -20 483 0 416 0 420 20 407 10 -8 54 -39 97 -70z m5850 -1 c-3 -8 -6 -5 -6
6 -1 11 2 17 5 13 3 -3 4 -12 1 -19z m0 -205 c-2 -21 -4 -4 -4 37 0 41 2 58 4
38 2 -21 2 -55 0 -75z m0 -75 c-3 -8 -6 -5 -6 6 -1 11 2 17 5 13 3 -3 4 -12 1
-19z m0 -70 c-3 -8 -6 -5 -6 6 -1 11 2 17 5 13 3 -3 4 -12 1 -19z m0 -115 c-3
-10 -5 -4 -5 12 0 17 2 24 5 18 2 -7 2 -21 0 -30z m0 -85 c-3 -7 -5 -2 -5 12
0 14 2 19 5 13 2 -7 2 -19 0 -25z m0 -50 c-3 -8 -6 -5 -6 6 -1 11 2 17 5 13 3
-3 4 -12 1 -19z m0 -200 c-3 -8 -6 -5 -6 6 -1 11 2 17 5 13 3 -3 4 -12 1 -19z
m-5512 -476 c-3 -3 -11 0 -18 7 -9 10 -8 11 6 5 10 -3 15 -9 12 -12z"/>
</g>
</svg>
