<?xml version="1.0" standalone="no"?>
<!DOCTYPE svg PUBLIC "-//W3C//DTD SVG 20010904//EN"
 "http://www.w3.org/TR/2001/REC-SVG-20010904/DTD/svg10.dtd">
<svg version="1.0" xmlns="http://www.w3.org/2000/svg"
 width="965.000000pt" height="965.000000pt" viewBox="0 0 965.000000 965.000000"
 preserveAspectRatio="xMidYMid meet">

<g transform="translate(0.000000,965.000000) scale(0.100000,-0.100000)"
fill="#000000" stroke="none">
<path d="M6815 9601 c-33 -9 -83 -30 -112 -45 -63 -34 -306 -242 -1023 -871
-163 -143 -431 -378 -596 -521 -165 -144 -305 -268 -312 -276 -11 -13 19 -16
239 -22 202 -6 254 -5 268 6 11 7 117 99 237 203 119 105 274 239 343 299 231
199 266 230 462 401 203 178 450 393 527 458 74 62 95 58 356 -77 309 -159
989 -512 1061 -551 33 -18 160 -85 281 -149 274 -144 298 -161 332 -234 l27
-57 3 -3175 c2 -2902 1 -3179 -14 -3218 -9 -23 -30 -53 -47 -66 -38 -28 -287
-172 -1077 -624 -558 -318 -811 -463 -1093 -627 -129 -75 -171 -84 -233 -52
-35 18 -229 169 -764 596 l-95 76 -247 -15 c-137 -7 -248 -17 -248 -21 0 -4
11 -14 25 -23 27 -18 283 -222 1003 -804 130 -104 171 -130 250 -159 83 -30
227 -32 299 -4 26 10 377 207 778 436 402 230 915 523 1140 652 226 129 430
250 454 269 132 102 204 240 216 417 3 45 2 1513 -3 3262 l-8 3180 -23 65
c-42 120 -121 222 -231 296 -25 17 -236 130 -470 251 -410 212 -546 282 -1121
576 -146 75 -292 143 -324 152 -76 19 -184 18 -260 -4z"/>
<path d="M1268 8219 c-58 -9 -149 -50 -191 -85 -18 -15 -140 -124 -271 -243
-555 -501 -529 -475 -570 -557 -37 -76 -50 -153 -36 -221 24 -112 -14 -68 579
-683 152 -157 336 -348 411 -425 206 -213 397 -411 488 -505 l82 -85 0 238 0
239 -312 321 c-469 483 -851 885 -865 910 -34 61 -30 65 327 388 419 377 396
359 451 359 28 0 50 -17 158 -123 450 -442 544 -532 549 -532 12 0 302 168
302 175 0 7 -630 616 -730 705 -73 65 -162 112 -229 120 -25 3 -57 7 -71 9
-14 1 -46 -1 -72 -5z"/>
<path d="M7205 7838 c-16 -6 -44 -20 -60 -32 -56 -38 -305 -239 -305 -245 1
-3 100 -62 222 -131 121 -69 257 -146 301 -173 44 -26 82 -46 84 -44 6 7 18
454 12 495 -14 108 -138 171 -254 130z"/>
<path d="M4525 7674 c-734 -24 -1455 -152 -1895 -336 -388 -162 -627 -393
-691 -665 -8 -35 -11 -640 -11 -2193 0 -1897 2 -2153 16 -2211 40 -172 144
-324 314 -456 209 -164 519 -302 892 -399 953 -247 2193 -254 3145 -18 649
161 1106 444 1224 758 54 145 52 29 49 2371 l-3 2160 -22 65 c-96 282 -394
503 -908 673 -378 125 -952 217 -1505 241 -177 8 -499 13 -605 10z m860 -388
c799 -68 1367 -223 1667 -453 201 -154 228 -343 72 -500 -232 -234 -832 -436
-1534 -518 -1068 -125 -2260 10 -2925 329 -265 128 -386 252 -385 398 1 78 16
121 65 188 58 79 153 151 293 223 358 183 887 297 1612 347 189 13 924 4 1135
-14z m-2916 -1440 c331 -171 880 -320 1436 -391 928 -118 1945 -38 2700 211
245 81 474 190 582 275 l38 31 3 -69 c2 -37 2 -228 0 -423 l-3 -355 -27 -58
c-160 -341 -1005 -629 -2018 -688 -228 -13 -786 -7 -990 10 -560 49 -1074 167
-1447 332 -232 102 -383 220 -445 348 l-33 66 -3 423 -3 423 60 -44 c32 -24
100 -65 150 -91z m86 -1421 c435 -212 1016 -350 1710 -407 205 -16 814 -16
1005 0 624 55 1067 148 1467 308 154 62 304 137 409 205 41 27 77 49 80 49 3
0 4 -192 2 -427 l-3 -428 -32 -60 c-106 -202 -431 -379 -937 -510 -440 -114
-829 -163 -1376 -172 -487 -8 -854 17 -1230 83 -738 129 -1237 354 -1358 611
l-27 58 -3 437 -3 438 73 -56 c40 -31 140 -88 223 -129z m-195 -1292 c228
-153 637 -301 1080 -392 1005 -205 2152 -167 3039 100 267 80 564 213 693 309
29 22 56 40 60 40 11 0 9 -661 -2 -749 -13 -100 -55 -187 -127 -263 -268 -281
-878 -479 -1738 -564 -246 -24 -820 -30 -1090 -10 -873 62 -1575 277 -1873
575 -31 32 -69 80 -84 108 -54 99 -58 134 -58 541 l0 374 23 -16 c12 -9 47
-33 77 -53z"/>
<path d="M1025 4354 c-401 -406 -743 -754 -758 -775 -66 -90 -86 -228 -46
-333 31 -84 68 -121 563 -565 412 -368 423 -376 561 -376 121 0 166 23 308
158 l107 103 0 222 c0 128 -4 222 -9 222 -5 0 -11 -3 -13 -7 -2 -5 -80 -83
-174 -175 -201 -198 -199 -197 -291 -120 -155 130 -675 606 -685 628 -7 15 -8
34 -2 53 10 33 42 67 633 671 229 234 444 455 479 491 l62 66 -2 237 -3 236
-730 -736z"/>
</g>
</svg>
